<svg width="15" height="15" viewBox="0 0 15 15" fill="none" xmlns="http://www.w3.org/2000/svg">
<path fill-rule="evenodd" clip-rule="evenodd" d="M14.1919 0.808076C14.3617 0.977849 14.4192 1.22987 14.3399 1.45649L9.96491 13.9565C9.88026 14.1984 9.65653 14.3641 9.40048 14.3745C9.14443 14.3849 8.90795 14.238 8.80387 14.0039L6.4015 8.59852L0.996167 6.19615C0.761991 6.09207 0.615076 5.85559 0.625523 5.59954C0.635969 5.34349 0.801659 5.11976 1.04353 5.03511L13.5435 0.660106C13.7702 0.58079 14.0222 0.638302 14.1919 0.808076ZM7.62047 8.26343L9.30587 12.0556L12.2553 3.62857L7.62047 8.26343ZM11.3715 2.74469L2.94443 5.69415L6.73659 7.37955L11.3715 2.74469Z" fill="white"/>
</svg>
