<svg width="14" height="14" viewBox="0 0 14 14" fill="none" xmlns="http://www.w3.org/2000/svg">
<path d="M12.5039 9.84524V11.6238C12.5045 11.7889 12.4715 11.9523 12.407 12.1036C12.3425 12.2549 12.2478 12.3907 12.1291 12.5023C12.0104 12.6139 11.8703 12.6989 11.7177 12.7518C11.5651 12.8047 11.4034 12.8243 11.2429 12.8094C9.46298 12.6112 7.75324 11.9879 6.25106 10.9894C4.85347 10.0792 3.66856 8.86478 2.78048 7.43238C1.80292 5.88578 1.19456 4.12492 1.00469 2.29245C0.99024 2.12851 1.00925 1.96328 1.06051 1.80728C1.11178 1.65129 1.19417 1.50794 1.30245 1.38636C1.41073 1.26479 1.54252 1.16766 1.68944 1.10115C1.83635 1.03464 1.99516 1.00021 2.15577 1.00006H3.89106C4.17178 0.997226 4.44392 1.09911 4.65677 1.28672C4.86961 1.47432 5.00863 1.73485 5.04792 2.01974C5.12116 2.58891 5.257 3.14776 5.45282 3.68563C5.53065 3.89782 5.54749 4.12843 5.50136 4.35013C5.45522 4.57183 5.34805 4.77533 5.19253 4.93652L4.45792 5.68943C5.28135 7.17363 6.48038 8.40253 7.9285 9.24647L8.66311 8.49356C8.82038 8.33417 9.01893 8.22432 9.23525 8.17704C9.45156 8.12976 9.67656 8.14702 9.8836 8.22678C10.4084 8.42749 10.9537 8.56671 11.509 8.64177C11.79 8.6824 12.0466 8.82745 12.23 9.04935C12.4135 9.27124 12.5109 9.5545 12.5039 9.84524Z" stroke="#FBFBFB" stroke-width="1.15686" stroke-linecap="round" stroke-linejoin="round"/>
</svg>
