<svg width="17" height="15" viewBox="0 0 17 15" fill="none" xmlns="http://www.w3.org/2000/svg">
<path fill-rule="evenodd" clip-rule="evenodd" d="M5.67353 1.08596C6.07186 0.687642 6.61209 0.463867 7.17541 0.463867H10.0456C10.6089 0.463867 11.1492 0.687642 11.5475 1.08596C11.9458 1.48428 12.1696 2.02452 12.1696 2.58784V3.3341H14.351C15.524 3.3341 16.4749 4.28503 16.4749 5.45807V12.6336C16.4749 13.8067 15.524 14.7576 14.351 14.7576H2.87006C1.69703 14.7576 0.746094 13.8067 0.746094 12.6336V5.45807C0.746094 4.28503 1.69703 3.3341 2.87006 3.3341H5.05144V2.58784C5.05144 2.02453 5.27521 1.48428 5.67353 1.08596ZM5.05144 4.71181H2.87006C2.45792 4.71181 2.1238 5.04592 2.1238 5.45807V12.6336C2.1238 13.0458 2.45792 13.3799 2.87006 13.3799H5.05144V4.71181ZM6.42915 13.3799V4.71181H10.7919V13.3799H6.42915ZM12.1696 13.3799H14.351C14.7631 13.3799 15.0972 13.0458 15.0972 12.6336V5.45807C15.0972 5.04592 14.7631 4.71181 14.351 4.71181H12.1696V13.3799ZM10.7919 3.3341H6.42915V2.58784C6.42915 2.38992 6.50777 2.2001 6.64772 2.06015C6.78767 1.9202 6.97749 1.84158 7.17541 1.84158H10.0456C10.2436 1.84158 10.4334 1.9202 10.5733 2.06015C10.7133 2.2001 10.7919 2.38992 10.7919 2.58784V3.3341Z" fill="white"/>
</svg>
