<svg width="287" height="61" viewBox="0 0 287 61" fill="none" xmlns="http://www.w3.org/2000/svg">
<path d="M11.6375 30.5155L11.3524 30.9457L5.29263 40.0949L0.5 39.7417V31.8966L11.6375 30.5155Z" fill="white"/>
<path d="M11.6375 0V30.5156L0.5 31.8967V0H11.6375Z" fill="white"/>
<path d="M31.4528 27.862L22.5102 41.3629L9.36328 40.3961L15.9367 30.4657L16.0431 30.3027C21.415 29.5488 26.5538 28.7269 31.4528 27.8597V27.862Z" fill="white"/>
<path d="M42.7011 10.8835L31.4527 27.8621C26.5537 28.7292 21.4171 29.5488 16.043 30.305L28.9002 10.8858H42.7011V10.8835Z" fill="white"/>
<path d="M65.1274 19.6976L64.5165 20.6214L61.2467 25.5685L59.1264 28.7586L53.655 37.0158L49.7154 42.959L49.4552 43.353L36.3105 42.3794L44.7056 29.7027L48.0862 24.5858L48.6451 23.7526L65.1274 19.6976Z" fill="white"/>
<path d="M78.1761 0L76.5333 2.47693L72.7409 8.20511L65.1288 19.6977L48.6465 23.7527L50.1399 21.4977L52.2511 18.3075L64.3843 0H78.1761Z" fill="white"/>
<path d="M97.0677 46.8624L90.707 46.3938L83.2125 26.5444L79.3477 16.3129C81.2756 15.697 83.1062 15.088 84.844 14.4971L87.1498 20.5988L97.07 46.8647L97.0677 46.8624Z" fill="white"/>
<path d="M84.8418 14.4948C83.1039 15.088 81.2733 15.6971 79.3454 16.3106L78.5738 14.2775L76.2793 8.20741L80.0763 2.47924L80.2664 2.38867L84.7558 14.2752L84.8395 14.4926L84.8418 14.4948Z" fill="white"/>
<path d="M48.0915 24.5859L44.7064 29.6982L43.1699 25.6296C44.8444 25.2878 46.4827 24.9368 48.0915 24.5836V24.5859Z" fill="white"/>
<path d="M48.6435 23.7527L48.0914 24.5859C46.4825 24.9368 44.8465 25.29 43.1698 25.6319L40.5449 18.6743L44.3374 12.9462L44.532 12.8556L48.6435 23.7527Z" fill="white"/>
<path d="M70.9081 41.6753V43.3643L62.5402 44.313L59.8203 44.1115L61.4405 41.6753H70.9081Z" fill="white"/>
<path d="M70.9069 43.3644V44.9334L62.5391 44.313L70.9069 43.3644Z" fill="white"/>
<path d="M76.2908 29.4423L73.3242 31.0974V23.7323L73.8379 22.9557L76.2908 29.4423Z" fill="white"/>
<path d="M79.8366 38.8316L79.7257 38.9992H73.3242V31.0974L76.2908 29.4424L79.8366 38.8316Z" fill="white"/>
<path d="M70.9068 27.3911V32.4446L65.5938 35.3992L66.1029 34.6295L68.6395 30.8122L70.9068 27.3911Z" fill="white"/>
<path d="M70.9071 32.4446V38.9992H63.209L64.3155 37.3282L65.5895 35.3992H65.594L70.9071 32.4446Z" fill="white"/>
<path d="M81.1106 42.2006L73.3242 43.0904V41.6753H80.916L81.1106 42.2006Z" fill="white"/>
<path d="M82.4456 45.7825L73.3242 45.1123V43.0905L81.1105 42.2007L82.4456 45.7825Z" fill="white"/>
<path d="M0.5 41.6753L97.4025 49.2034L101.313 51.9973H0.5" fill="white"/>
<path d="M158.452 43.7694C158.452 42.7815 158.634 41.8163 158.999 40.8739C159.363 39.9163 159.895 39.05 160.595 38.2748C161.294 37.4996 162.145 36.884 163.148 36.428C164.151 35.9568 165.291 35.7212 166.568 35.7212C168.088 35.7212 169.403 36.048 170.512 36.7016C171.637 37.3552 172.473 38.2064 173.02 39.2551L170.148 41.2615C169.904 40.6839 169.578 40.2355 169.167 39.9163C168.772 39.5971 168.331 39.3767 167.845 39.2551C167.374 39.1184 166.918 39.05 166.477 39.05C165.763 39.05 165.139 39.1944 164.607 39.4831C164.075 39.7567 163.635 40.1291 163.285 40.6003C162.935 41.0715 162.677 41.5959 162.51 42.1735C162.343 42.7511 162.259 43.3286 162.259 43.9062C162.259 44.5446 162.358 45.1602 162.555 45.753C162.753 46.3458 163.034 46.8701 163.399 47.3261C163.779 47.7821 164.235 48.1469 164.767 48.4205C165.299 48.6789 165.884 48.8081 166.522 48.8081C166.978 48.8081 167.442 48.7321 167.913 48.5801C168.384 48.4281 168.818 48.1925 169.213 47.8733C169.623 47.5389 169.935 47.1057 170.148 46.5737L173.203 48.3749C172.884 49.1653 172.359 49.8417 171.63 50.404C170.9 50.9664 170.072 51.3996 169.144 51.7036C168.232 51.9924 167.328 52.1368 166.431 52.1368C165.261 52.1368 164.182 51.9012 163.194 51.43C162.221 50.9436 161.377 50.3052 160.663 49.5149C159.964 48.7093 159.417 47.8125 159.022 46.8245C158.642 45.8214 158.452 44.803 158.452 43.7694ZM179.03 52.228C178.011 52.228 177.099 52.0608 176.294 51.7264C175.503 51.392 174.834 50.936 174.287 50.3584C173.74 49.7809 173.322 49.1197 173.033 48.3749C172.76 47.6301 172.623 46.8473 172.623 46.0266C172.623 45.1906 172.76 44.4002 173.033 43.6554C173.322 42.9106 173.74 42.2495 174.287 41.6719C174.834 41.0943 175.503 40.6383 176.294 40.3039C177.099 39.9695 178.011 39.8023 179.03 39.8023C180.048 39.8023 180.952 39.9695 181.743 40.3039C182.533 40.6383 183.202 41.0943 183.749 41.6719C184.296 42.2495 184.714 42.9106 185.003 43.6554C185.292 44.4002 185.436 45.1906 185.436 46.0266C185.436 46.8473 185.292 47.6301 185.003 48.3749C184.714 49.1197 184.296 49.7809 183.749 50.3584C183.202 50.936 182.533 51.392 181.743 51.7264C180.952 52.0608 180.048 52.228 179.03 52.228ZM176.362 46.0266C176.362 46.6497 176.476 47.1969 176.704 47.6681C176.947 48.1393 177.266 48.5041 177.662 48.7625C178.057 49.0209 178.513 49.1501 179.03 49.1501C179.531 49.1501 179.98 49.0209 180.375 48.7625C180.785 48.4889 181.104 48.1165 181.332 47.6453C181.56 47.1741 181.674 46.6345 181.674 46.0266C181.674 45.4034 181.56 44.8562 181.332 44.385C181.104 43.9138 180.785 43.549 180.375 43.2906C179.98 43.0322 179.531 42.903 179.03 42.903C178.513 42.903 178.057 43.0322 177.662 43.2906C177.266 43.549 176.947 43.9138 176.704 44.385C176.476 44.8562 176.362 45.4034 176.362 46.0266ZM197.414 52H193.766V45.2742C193.766 44.4838 193.614 43.9138 193.31 43.5642C193.021 43.1994 192.634 43.017 192.147 43.017C191.813 43.017 191.471 43.1082 191.121 43.2906C190.772 43.473 190.452 43.7238 190.164 44.043C189.89 44.3622 189.677 44.727 189.525 45.1374V52H185.877V40.0303H189.16V42.0367C189.464 41.5655 189.844 41.1627 190.3 40.8283C190.756 40.4939 191.281 40.2431 191.874 40.0759C192.466 39.8935 193.112 39.8023 193.812 39.8023C194.587 39.8023 195.21 39.9467 195.681 40.2355C196.168 40.5091 196.532 40.8739 196.775 41.3299C197.034 41.7859 197.201 42.2799 197.277 42.8119C197.368 43.3286 197.414 43.8378 197.414 44.3394V52ZM206.199 51.3616C205.865 51.4984 205.492 51.6352 205.082 51.772C204.687 51.9088 204.269 52.0152 203.828 52.0912C203.387 52.1824 202.954 52.228 202.528 52.228C201.92 52.228 201.358 52.1292 200.841 51.9316C200.34 51.7188 199.937 51.3768 199.633 50.9056C199.344 50.4344 199.2 49.8113 199.2 49.0361V42.7891H197.672V40.0303H199.2V36.2228H202.848V40.0303H205.287V42.7891H202.848V47.7821C202.848 48.1773 202.946 48.4661 203.144 48.6485C203.342 48.8157 203.592 48.8993 203.896 48.8993C204.155 48.8993 204.428 48.8537 204.717 48.7625C205.021 48.6713 205.28 48.5725 205.492 48.4661L206.199 51.3616ZM210.835 52.228C209.817 52.228 208.821 52.0608 207.849 51.7264C206.876 51.392 206.055 50.898 205.386 50.2444L206.64 47.9417C207.37 48.4737 208.077 48.8765 208.76 49.1501C209.46 49.4237 210.113 49.5605 210.721 49.5605C211.192 49.5605 211.557 49.4845 211.816 49.3325C212.074 49.1805 212.203 48.9449 212.203 48.6257C212.203 48.3977 212.127 48.2229 211.975 48.1013C211.823 47.9645 211.588 47.8429 211.268 47.7365C210.964 47.6301 210.584 47.5161 210.128 47.3945C209.216 47.0905 208.456 46.7941 207.849 46.5054C207.241 46.2166 206.785 45.867 206.481 45.4566C206.177 45.031 206.025 44.4838 206.025 43.815C206.025 43.0094 206.222 42.3103 206.617 41.7175C207.028 41.1095 207.605 40.6383 208.35 40.3039C209.095 39.9695 209.984 39.8023 211.018 39.8023C211.838 39.8023 212.636 39.9315 213.412 40.1899C214.202 40.4483 214.939 40.8815 215.623 41.4895L214.21 43.7694C213.526 43.2982 212.918 42.9562 212.386 42.7435C211.854 42.5307 211.337 42.4243 210.835 42.4243C210.577 42.4243 210.341 42.4547 210.128 42.5155C209.916 42.5763 209.741 42.6827 209.604 42.8347C209.482 42.9714 209.422 43.1538 209.422 43.3818C209.422 43.6098 209.482 43.7922 209.604 43.929C209.741 44.0658 209.946 44.1874 210.22 44.2938C210.508 44.385 210.866 44.499 211.291 44.6358C212.279 44.9246 213.1 45.221 213.754 45.525C214.407 45.8138 214.894 46.1786 215.213 46.6193C215.547 47.0449 215.714 47.6149 215.714 48.3293C215.714 49.5453 215.274 50.5028 214.392 51.202C213.526 51.886 212.34 52.228 210.835 52.228ZM223.81 43.1538C222.928 43.1538 222.13 43.2982 221.416 43.587C220.701 43.8606 220.185 44.271 219.865 44.8182V52H216.217V40.0303H219.569V42.4471C219.979 41.6415 220.511 41.0107 221.165 40.5547C221.819 40.0987 222.503 39.8631 223.217 39.8479C223.384 39.8479 223.506 39.8479 223.582 39.8479C223.673 39.8479 223.749 39.8555 223.81 39.8707V43.1538ZM223.864 47.6909V40.0303H227.512V46.8929C227.512 47.6225 227.656 48.1849 227.945 48.5801C228.234 48.9601 228.644 49.1501 229.176 49.1501C229.511 49.1501 229.83 49.0969 230.134 48.9905C230.438 48.8689 230.734 48.6789 231.023 48.4205C231.312 48.1621 231.57 47.8277 231.798 47.4173V40.0303H235.446V47.9417C235.446 48.3065 235.499 48.5649 235.606 48.7169C235.727 48.8537 235.933 48.9373 236.221 48.9677V52C235.887 52.0608 235.591 52.1064 235.332 52.1368C235.089 52.1672 234.869 52.1824 234.671 52.1824C234.033 52.1824 233.524 52.0532 233.144 51.7948C232.764 51.5212 232.528 51.1412 232.437 50.6548L232.368 49.9253C231.821 50.7156 231.137 51.3008 230.316 51.6808C229.511 52.0456 228.606 52.228 227.603 52.228C226.387 52.228 225.46 51.8404 224.822 51.0652C224.183 50.29 223.864 49.1653 223.864 47.6909ZM242.627 52.228C241.609 52.228 240.704 52.0608 239.914 51.7264C239.123 51.392 238.447 50.936 237.885 50.3584C237.338 49.7809 236.92 49.1197 236.631 48.3749C236.342 47.6301 236.198 46.8397 236.198 46.0038C236.198 44.9094 236.448 43.891 236.95 42.9486C237.467 42.0063 238.204 41.2463 239.161 40.6687C240.119 40.0911 241.274 39.8023 242.627 39.8023C243.995 39.8023 245.15 40.0987 246.092 40.6915C247.05 41.2691 247.764 42.0291 248.236 42.9714L244.679 44.043C244.451 43.6782 244.155 43.397 243.79 43.1994C243.44 43.0018 243.045 42.903 242.604 42.903C242.103 42.903 241.647 43.0322 241.236 43.2906C240.841 43.549 240.522 43.9062 240.279 44.3622C240.051 44.8182 239.937 45.3654 239.937 46.0038C239.937 46.6269 240.058 47.1741 240.301 47.6453C240.545 48.1165 240.864 48.4889 241.259 48.7625C241.654 49.0209 242.103 49.1501 242.604 49.1501C242.908 49.1501 243.189 49.1045 243.448 49.0133C243.721 48.9069 243.965 48.7625 244.177 48.5801C244.405 48.3977 244.58 48.1925 244.702 47.9645L248.258 49.0589C247.97 49.6669 247.552 50.214 247.004 50.7004C246.472 51.1716 245.842 51.544 245.112 51.8176C244.383 52.0912 243.554 52.228 242.627 52.228ZM256.291 51.3616C255.957 51.4984 255.584 51.6352 255.174 51.772C254.779 51.9088 254.361 52.0152 253.92 52.0912C253.479 52.1824 253.046 52.228 252.62 52.228C252.012 52.228 251.45 52.1292 250.933 51.9316C250.432 51.7188 250.029 51.3768 249.725 50.9056C249.436 50.4344 249.292 49.8113 249.292 49.0361V42.7891H247.764V40.0303H249.292V36.2228H252.939V40.0303H255.379V42.7891H252.939V47.7821C252.939 48.1773 253.038 48.4661 253.236 48.6485C253.433 48.8157 253.684 48.8993 253.988 48.8993C254.247 48.8993 254.52 48.8537 254.809 48.7625C255.113 48.6713 255.371 48.5725 255.584 48.4661L256.291 51.3616ZM256.344 52V40.0303H259.992V52H256.344ZM256.344 38.6624V35.3565H259.992V38.6624H256.344ZM266.821 52.228C265.803 52.228 264.891 52.0608 264.085 51.7264C263.295 51.392 262.626 50.936 262.079 50.3584C261.532 49.7809 261.114 49.1197 260.825 48.3749C260.552 47.6301 260.415 46.8473 260.415 46.0266C260.415 45.1906 260.552 44.4002 260.825 43.6554C261.114 42.9106 261.532 42.2495 262.079 41.6719C262.626 41.0943 263.295 40.6383 264.085 40.3039C264.891 39.9695 265.803 39.8023 266.821 39.8023C267.84 39.8023 268.744 39.9695 269.535 40.3039C270.325 40.6383 270.994 41.0943 271.541 41.6719C272.088 42.2495 272.506 42.9106 272.795 43.6554C273.084 44.4002 273.228 45.1906 273.228 46.0266C273.228 46.8473 273.084 47.6301 272.795 48.3749C272.506 49.1197 272.088 49.7809 271.541 50.3584C270.994 50.936 270.325 51.392 269.535 51.7264C268.744 52.0608 267.84 52.228 266.821 52.228ZM264.154 46.0266C264.154 46.6497 264.268 47.1969 264.496 47.6681C264.739 48.1393 265.058 48.5041 265.453 48.7625C265.849 49.0209 266.305 49.1501 266.821 49.1501C267.323 49.1501 267.771 49.0209 268.167 48.7625C268.577 48.4889 268.896 48.1165 269.124 47.6453C269.352 47.1741 269.466 46.6345 269.466 46.0266C269.466 45.4034 269.352 44.8562 269.124 44.385C268.896 43.9138 268.577 43.549 268.167 43.2906C267.771 43.0322 267.323 42.903 266.821 42.903C266.305 42.903 265.849 43.0322 265.453 43.2906C265.058 43.549 264.739 43.9138 264.496 44.385C264.268 44.8562 264.154 45.4034 264.154 46.0266ZM285.206 52H281.558V45.2742C281.558 44.4838 281.406 43.9138 281.102 43.5642C280.813 43.1994 280.425 43.017 279.939 43.017C279.605 43.017 279.263 43.1082 278.913 43.2906C278.564 43.473 278.244 43.7238 277.956 44.043C277.682 44.3622 277.469 44.727 277.317 45.1374V52H273.669V40.0303H276.952V42.0367C277.256 41.5655 277.636 41.1627 278.092 40.8283C278.548 40.4939 279.073 40.2431 279.665 40.0759C280.258 39.8935 280.904 39.8023 281.603 39.8023C282.379 39.8023 283.002 39.9467 283.473 40.2355C283.959 40.5091 284.324 40.8739 284.567 41.3299C284.826 41.7859 284.993 42.2799 285.069 42.8119C285.16 43.3286 285.206 43.8378 285.206 44.3394V52Z" fill="white"/>
<path d="M108.468 52V24.5154H114.817V36.3609L124.882 24.5154H132.004L121.707 36.7867L132.701 52H125.424L117.681 40.9674L114.817 43.9095V52H108.468ZM140.978 29.2978H146.637L154.439 52H149.068L147.309 46.916H140.242L138.516 52H133.144L140.978 29.2978ZM146.446 43.3028L143.792 34.5737L141.074 43.3028H146.446Z" fill="white"/>
<path d="M133.815 41.0738C133.815 42.2388 132.87 43.1833 131.705 43.1833C130.54 43.1833 129.596 42.2388 129.596 41.0738C129.596 39.9088 130.54 38.9644 131.705 38.9644C132.87 38.9644 133.815 39.9088 133.815 41.0738Z" fill="white"/>
</svg>
