<svg width="285" height="53" viewBox="0 0 285 53" fill="none" xmlns="http://www.w3.org/2000/svg">
<path d="M11.1375 30.5155L10.8524 30.9457L4.79263 40.0949L0 39.7417V31.8966L11.1375 30.5155Z" fill="#007393"/>
<path d="M11.1375 0V30.5156L0 31.8967V0H11.1375Z" fill="#0090A5"/>
<path d="M30.9528 27.862L22.0102 41.3629L8.86328 40.3961L15.4367 30.4657L15.5431 30.3027C20.915 29.5488 26.0538 28.7269 30.9528 27.8597V27.862Z" fill="#007393"/>
<path d="M42.2011 10.8835L30.9527 27.8621C26.0537 28.7292 20.9171 29.5488 15.543 30.305L28.4002 10.8858H42.2011V10.8835Z" fill="#0090A5"/>
<path d="M64.6274 19.6976L64.0165 20.6214L60.7467 25.5685L58.6264 28.7586L53.155 37.0158L49.2154 42.959L48.9552 43.353L35.8105 42.3794L44.2056 29.7027L47.5862 24.5858L48.1451 23.7526L64.6274 19.6976Z" fill="#6CC5F0"/>
<path d="M77.6761 0L76.0333 2.47693L72.2409 8.20511L64.6288 19.6977L48.1465 23.7527L49.6399 21.4977L51.7511 18.3075L63.8843 0H77.6761Z" fill="#ACE1FF"/>
<path d="M96.5677 46.8624L90.207 46.3938L82.7125 26.5444L78.8477 16.3129C80.7756 15.697 82.6062 15.088 84.344 14.4971L86.6498 20.5988L96.57 46.8647L96.5677 46.8624Z" fill="#6CC5F0"/>
<path d="M84.3418 14.4948C82.6039 15.088 80.7733 15.6971 78.8454 16.3106L78.0738 14.2775L75.7793 8.20741L79.5763 2.47924L79.7664 2.38867L84.2558 14.2752L84.3395 14.4926L84.3418 14.4948Z" fill="#ACE1FF"/>
<path d="M47.5915 24.5859L44.2064 29.6982L42.6699 25.6296C44.3444 25.2878 45.9827 24.9368 47.5915 24.5836V24.5859Z" fill="#007393"/>
<path d="M48.1435 23.7527L47.5914 24.5859C45.9825 24.9368 44.3465 25.29 42.6698 25.6319L40.0449 18.6743L43.8374 12.9462L44.032 12.8556L48.1435 23.7527Z" fill="#007393"/>
<path d="M70.4081 41.6753V43.3643L62.0402 44.313L59.3203 44.1115L60.9405 41.6753H70.4081Z" fill="#6CC5F0"/>
<path d="M70.4069 43.3644V44.9334L62.0391 44.313L70.4069 43.3644Z" fill="#0090A5"/>
<path d="M75.7908 29.4423L72.8242 31.0974V23.7323L73.3379 22.9557L75.7908 29.4423Z" fill="#6CC5F0"/>
<path d="M79.3366 38.8316L79.2257 38.9992H72.8242V31.0974L75.7908 29.4424L79.3366 38.8316Z" fill="#0090A5"/>
<path d="M70.4068 27.3911V32.4446L65.0938 35.3992L65.6029 34.6295L68.1395 30.8122L70.4068 27.3911Z" fill="#6CC5F0"/>
<path d="M70.4071 32.4446V38.9992H62.709L63.8155 37.3282L65.0895 35.3992H65.094L70.4071 32.4446Z" fill="#0090A5"/>
<path d="M80.6106 42.2006L72.8242 43.0904V41.6753H80.416L80.6106 42.2006Z" fill="#6CC5F0"/>
<path d="M81.9456 45.7825L72.8242 45.1123V43.0905L80.6105 42.2007L81.9456 45.7825Z" fill="#0090A5"/>
<path d="M0 41.6753L96.9025 49.2034L100.813 51.9973H0" fill="#0090A5"/>
<path d="M157.952 43.7694C157.952 42.7814 158.134 41.8163 158.499 40.8739C158.864 39.9163 159.396 39.0499 160.095 38.2748C160.794 37.4996 161.646 36.884 162.649 36.428C163.652 35.9568 164.792 35.7212 166.069 35.7212C167.589 35.7212 168.903 36.048 170.013 36.7016C171.138 37.3552 171.974 38.2064 172.521 39.2551L169.648 41.2615C169.405 40.6839 169.078 40.2355 168.668 39.9163C168.273 39.5971 167.832 39.3767 167.345 39.2551C166.874 39.1183 166.418 39.0499 165.977 39.0499C165.263 39.0499 164.64 39.1943 164.108 39.4831C163.576 39.7567 163.135 40.1291 162.785 40.6003C162.436 41.0715 162.177 41.5959 162.01 42.1734C161.843 42.751 161.76 43.3286 161.76 43.9062C161.76 44.5446 161.858 45.1602 162.056 45.753C162.253 46.3457 162.535 46.8701 162.899 47.3261C163.279 47.7821 163.735 48.1469 164.267 48.4205C164.799 48.6789 165.385 48.8081 166.023 48.8081C166.479 48.8081 166.943 48.7321 167.414 48.5801C167.885 48.4281 168.318 48.1925 168.713 47.8733C169.124 47.5389 169.435 47.1057 169.648 46.5737L172.703 48.3749C172.384 49.1653 171.86 49.8416 171.13 50.404C170.4 50.9664 169.572 51.3996 168.645 51.7036C167.733 51.9924 166.829 52.1368 165.932 52.1368C164.761 52.1368 163.682 51.9012 162.694 51.43C161.722 50.9436 160.878 50.3052 160.164 49.5148C159.464 48.7093 158.917 47.8125 158.522 46.8245C158.142 45.8213 157.952 44.803 157.952 43.7694Z" fill="#0090A5"/>
<path d="M178.53 52.228C177.512 52.228 176.6 52.0608 175.794 51.7264C175.004 51.392 174.335 50.936 173.788 50.3584C173.241 49.7808 172.823 49.1197 172.534 48.3749C172.26 47.6301 172.123 46.8473 172.123 46.0265C172.123 45.1906 172.26 44.4002 172.534 43.6554C172.823 42.9106 173.241 42.2494 173.788 41.6719C174.335 41.0943 175.004 40.6383 175.794 40.3039C176.6 39.9695 177.512 39.8023 178.53 39.8023C179.548 39.8023 180.453 39.9695 181.243 40.3039C182.034 40.6383 182.702 41.0943 183.25 41.6719C183.797 42.2494 184.215 42.9106 184.503 43.6554C184.792 44.4002 184.937 45.1906 184.937 46.0265C184.937 46.8473 184.792 47.6301 184.503 48.3749C184.215 49.1197 183.797 49.7808 183.25 50.3584C182.702 50.936 182.034 51.392 181.243 51.7264C180.453 52.0608 179.548 52.228 178.53 52.228ZM175.863 46.0265C175.863 46.6497 175.977 47.1969 176.205 47.6681C176.448 48.1393 176.767 48.5041 177.162 48.7625C177.557 49.0209 178.013 49.1501 178.53 49.1501C179.032 49.1501 179.48 49.0209 179.875 48.7625C180.286 48.4889 180.605 48.1165 180.833 47.6453C181.061 47.1741 181.175 46.6345 181.175 46.0265C181.175 45.4034 181.061 44.8562 180.833 44.385C180.605 43.9138 180.286 43.549 179.875 43.2906C179.48 43.0322 179.032 42.903 178.53 42.903C178.013 42.903 177.557 43.0322 177.162 43.2906C176.767 43.549 176.448 43.9138 176.205 44.385C175.977 44.8562 175.863 45.4034 175.863 46.0265Z" fill="#0090A5"/>
<path d="M196.914 52H193.266V45.2742C193.266 44.4838 193.114 43.9138 192.81 43.5642C192.522 43.1994 192.134 43.017 191.648 43.017C191.313 43.017 190.971 43.1082 190.622 43.2906C190.272 43.473 189.953 43.7238 189.664 44.043C189.391 44.3622 189.178 44.727 189.026 45.1374V52H185.378V40.0303H188.661V42.0367C188.965 41.5655 189.345 41.1627 189.801 40.8283C190.257 40.4939 190.781 40.2431 191.374 40.0759C191.967 39.8935 192.613 39.8023 193.312 39.8023C194.087 39.8023 194.71 39.9467 195.182 40.2355C195.668 40.5091 196.033 40.8739 196.276 41.3299C196.534 41.7859 196.702 42.2798 196.778 42.8118C196.869 43.3286 196.914 43.8378 196.914 44.3394V52Z" fill="#0090A5"/>
<path d="M205.7 51.3616C205.365 51.4984 204.993 51.6352 204.582 51.772C204.187 51.9088 203.769 52.0152 203.328 52.0912C202.888 52.1824 202.454 52.228 202.029 52.228C201.421 52.228 200.859 52.1292 200.342 51.9316C199.84 51.7188 199.437 51.3768 199.133 50.9056C198.845 50.4344 198.7 49.8112 198.7 49.0361V42.789H197.173V40.0303H198.7V36.2228H202.348V40.0303H204.788V42.789H202.348V47.7821C202.348 48.1773 202.447 48.4661 202.644 48.6485C202.842 48.8157 203.093 48.8993 203.397 48.8993C203.655 48.8993 203.929 48.8537 204.218 48.7625C204.522 48.6713 204.78 48.5725 204.993 48.4661L205.7 51.3616Z" fill="#0090A5"/>
<path d="M210.336 52.228C209.317 52.228 208.322 52.0608 207.349 51.7264C206.376 51.392 205.555 50.898 204.887 50.2444L206.141 47.9417C206.87 48.4737 207.577 48.8765 208.261 49.1501C208.96 49.4237 209.614 49.5604 210.222 49.5604C210.693 49.5604 211.058 49.4844 211.316 49.3325C211.574 49.1805 211.704 48.9449 211.704 48.6257C211.704 48.3977 211.628 48.2229 211.476 48.1013C211.324 47.9645 211.088 47.8429 210.769 47.7365C210.465 47.6301 210.085 47.5161 209.629 47.3945C208.717 47.0905 207.957 46.7941 207.349 46.5053C206.741 46.2165 206.285 45.8669 205.981 45.4566C205.677 45.031 205.525 44.4838 205.525 43.815C205.525 43.0094 205.723 42.3102 206.118 41.7175C206.528 41.1095 207.106 40.6383 207.851 40.3039C208.595 39.9695 209.485 39.8023 210.518 39.8023C211.339 39.8023 212.137 39.9315 212.912 40.1899C213.702 40.4483 214.44 40.8815 215.124 41.4895L213.71 43.7694C213.026 43.2982 212.418 42.9562 211.886 42.7434C211.354 42.5306 210.837 42.4242 210.336 42.4242C210.077 42.4242 209.842 42.4546 209.629 42.5154C209.416 42.5762 209.241 42.6826 209.105 42.8346C208.983 42.9714 208.922 43.1538 208.922 43.3818C208.922 43.6098 208.983 43.7922 209.105 43.929C209.241 44.0658 209.447 44.1874 209.72 44.2938C210.009 44.385 210.366 44.499 210.792 44.6358C211.78 44.9246 212.6 45.221 213.254 45.525C213.908 45.8137 214.394 46.1785 214.713 46.6193C215.048 47.0449 215.215 47.6149 215.215 48.3293C215.215 49.5452 214.774 50.5028 213.892 51.202C213.026 51.886 211.84 52.228 210.336 52.228Z" fill="#0090A5"/>
<path d="M223.31 43.1538C222.429 43.1538 221.631 43.2982 220.916 43.587C220.202 43.8606 219.685 44.271 219.366 44.8182V52H215.718V40.0303H219.069V42.447C219.48 41.6415 220.012 41.0107 220.665 40.5547C221.319 40.0987 222.003 39.8631 222.717 39.8479C222.885 39.8479 223.006 39.8479 223.082 39.8479C223.173 39.8479 223.249 39.8555 223.31 39.8707V43.1538Z" fill="#0090A5"/>
<path d="M223.365 47.6909V40.0303H227.013V46.8929C227.013 47.6225 227.157 48.1849 227.446 48.5801C227.735 48.9601 228.145 49.1501 228.677 49.1501C229.011 49.1501 229.33 49.0969 229.634 48.9905C229.938 48.8689 230.235 48.6789 230.524 48.4205C230.812 48.1621 231.071 47.8277 231.299 47.4173V40.0303H234.947V47.9417C234.947 48.3065 235 48.5649 235.106 48.7169C235.228 48.8537 235.433 48.9373 235.722 48.9677V52C235.388 52.0608 235.091 52.1064 234.833 52.1368C234.59 52.1672 234.369 52.1824 234.172 52.1824C233.533 52.1824 233.024 52.0532 232.644 51.7948C232.264 51.5212 232.028 51.1412 231.937 50.6548L231.869 49.9252C231.322 50.7156 230.638 51.3008 229.817 51.6808C229.011 52.0456 228.107 52.228 227.104 52.228C225.888 52.228 224.961 51.8404 224.322 51.0652C223.684 50.29 223.365 49.1653 223.365 47.6909Z" fill="#0090A5"/>
<path d="M242.127 52.228C241.109 52.228 240.205 52.0608 239.414 51.7264C238.624 51.392 237.948 50.936 237.385 50.3584C236.838 49.7808 236.42 49.1197 236.131 48.3749C235.842 47.6301 235.698 46.8397 235.698 46.0037C235.698 44.9094 235.949 43.891 236.45 42.9486C236.967 42.0063 237.704 41.2463 238.662 40.6687C239.62 40.0911 240.775 39.8023 242.127 39.8023C243.495 39.8023 244.651 40.0987 245.593 40.6915C246.551 41.2691 247.265 42.0291 247.736 42.9714L244.179 44.043C243.951 43.6782 243.655 43.397 243.29 43.1994C242.941 43.0018 242.545 42.903 242.105 42.903C241.603 42.903 241.147 43.0322 240.737 43.2906C240.342 43.549 240.022 43.9062 239.779 44.3622C239.551 44.8182 239.437 45.3654 239.437 46.0037C239.437 46.6269 239.559 47.1741 239.802 47.6453C240.045 48.1165 240.364 48.4889 240.76 48.7625C241.155 49.0209 241.603 49.1501 242.105 49.1501C242.409 49.1501 242.69 49.1045 242.948 49.0133C243.222 48.9069 243.465 48.7625 243.678 48.5801C243.906 48.3977 244.081 48.1925 244.202 47.9645L247.759 49.0589C247.47 49.6668 247.052 50.214 246.505 50.7004C245.973 51.1716 245.342 51.544 244.613 51.8176C243.883 52.0912 243.055 52.228 242.127 52.228Z" fill="#0090A5"/>
<path d="M255.791 51.3616C255.457 51.4984 255.085 51.6352 254.674 51.772C254.279 51.9088 253.861 52.0152 253.42 52.0912C252.98 52.1824 252.546 52.228 252.121 52.228C251.513 52.228 250.95 52.1292 250.434 51.9316C249.932 51.7188 249.529 51.3768 249.225 50.9056C248.936 50.4344 248.792 49.8112 248.792 49.0361V42.789H247.264V40.0303H248.792V36.2228H252.44V40.0303H254.879V42.789H252.44V47.7821C252.44 48.1773 252.539 48.4661 252.736 48.6485C252.934 48.8157 253.185 48.8993 253.489 48.8993C253.747 48.8993 254.021 48.8537 254.309 48.7625C254.613 48.6713 254.872 48.5725 255.085 48.4661L255.791 51.3616Z" fill="#0090A5"/>
<path d="M255.845 52V40.0303H259.493V52H255.845ZM255.845 38.6623V35.3564H259.493V38.6623H255.845Z" fill="#0090A5"/>
<path d="M266.322 52.228C265.304 52.228 264.392 52.0608 263.586 51.7264C262.796 51.392 262.127 50.936 261.58 50.3584C261.032 49.7808 260.614 49.1197 260.326 48.3749C260.052 47.6301 259.915 46.8473 259.915 46.0265C259.915 45.1906 260.052 44.4002 260.326 43.6554C260.614 42.9106 261.032 42.2494 261.58 41.6719C262.127 41.0943 262.796 40.6383 263.586 40.3039C264.392 39.9695 265.304 39.8023 266.322 39.8023C267.34 39.8023 268.245 39.9695 269.035 40.3039C269.825 40.6383 270.494 41.0943 271.041 41.6719C271.589 42.2494 272.007 42.9106 272.295 43.6554C272.584 44.4002 272.729 45.1906 272.729 46.0265C272.729 46.8473 272.584 47.6301 272.295 48.3749C272.007 49.1197 271.589 49.7808 271.041 50.3584C270.494 50.936 269.825 51.392 269.035 51.7264C268.245 52.0608 267.34 52.228 266.322 52.228ZM263.654 46.0265C263.654 46.6497 263.768 47.1969 263.996 47.6681C264.24 48.1393 264.559 48.5041 264.954 48.7625C265.349 49.0209 265.805 49.1501 266.322 49.1501C266.823 49.1501 267.272 49.0209 267.667 48.7625C268.077 48.4889 268.397 48.1165 268.625 47.6453C268.853 47.1741 268.967 46.6345 268.967 46.0265C268.967 45.4034 268.853 44.8562 268.625 44.385C268.397 43.9138 268.077 43.549 267.667 43.2906C267.272 43.0322 266.823 42.903 266.322 42.903C265.805 42.903 265.349 43.0322 264.954 43.2906C264.559 43.549 264.24 43.9138 263.996 44.385C263.768 44.8562 263.654 45.4034 263.654 46.0265Z" fill="#0090A5"/>
<path d="M284.706 52H281.058V45.2742C281.058 44.4838 280.906 43.9138 280.602 43.5642C280.314 43.1994 279.926 43.017 279.44 43.017C279.105 43.017 278.763 43.1082 278.414 43.2906C278.064 43.473 277.745 43.7238 277.456 44.043C277.182 44.3622 276.97 44.727 276.818 45.1374V52H273.17V40.0303H276.453V42.0367C276.757 41.5655 277.137 41.1627 277.593 40.8283C278.049 40.4939 278.573 40.2431 279.166 40.0759C279.759 39.8935 280.405 39.8023 281.104 39.8023C281.879 39.8023 282.502 39.9467 282.973 40.2355C283.46 40.5091 283.825 40.8739 284.068 41.3299C284.326 41.7859 284.493 42.2798 284.569 42.8118C284.661 43.3286 284.706 43.8378 284.706 44.3394V52Z" fill="#0090A5"/>
<path d="M107.969 52V24.5154H114.317V36.3609L124.382 24.5154H131.505L121.208 36.7867L132.202 52H124.924L117.182 40.9674L114.317 43.9094V52H107.969Z" fill="#0090A5"/>
<path d="M140.478 29.2978H146.138L153.94 52H148.568L146.809 46.916H139.743L138.016 52H132.645L140.478 29.2978ZM145.946 43.3028L143.292 34.5737L140.574 43.3028H145.946Z" fill="#0090A5"/>
<path d="M133.314 41.0738C133.314 42.2388 132.37 43.1832 131.205 43.1832C130.04 43.1832 129.096 42.2388 129.096 41.0738C129.096 39.9088 130.04 38.9643 131.205 38.9643C132.37 38.9643 133.314 39.9088 133.314 41.0738Z" fill="#007393"/>
</svg>
