<svg width="16" height="13" viewBox="0 0 16 13" fill="none" xmlns="http://www.w3.org/2000/svg">
<path fill-rule="evenodd" clip-rule="evenodd" d="M1.75443 2.10453L7.88371 6.50194L14.013 2.10453C13.8998 1.85434 13.654 1.68835 13.39 1.68835H2.37738C2.11342 1.68835 1.8676 1.85434 1.75443 2.10453ZM14.0783 3.75187L8.28494 7.9083C8.04512 8.08036 7.7223 8.08036 7.48248 7.9083L1.68908 3.75187V10.8763C1.68908 11.2882 2.01626 11.5989 2.37738 11.5989H13.39C13.7512 11.5989 14.0783 11.2882 14.0783 10.8763V3.75187ZM0.3125 2.41095C0.3125 1.2709 1.22425 0.311768 2.37738 0.311768H13.39C14.5432 0.311768 15.4549 1.2709 15.4549 2.41095V10.8763C15.4549 12.0163 14.5432 12.9755 13.39 12.9755H2.37738C1.22425 12.9755 0.3125 12.0163 0.3125 10.8763V2.41095Z" fill="current"/>
</svg>
