<svg width="108" height="109" viewBox="0 0 108 109" fill="none" xmlns="http://www.w3.org/2000/svg">
<path d="M30.1997 103.189H15.4713C12.8671 103.189 10.3697 102.155 8.52824 100.314C6.68684 98.4721 5.65234 95.9746 5.65234 93.3705V59.0042C5.65234 56.4 6.68684 53.9026 8.52824 52.0611C10.3697 50.2197 12.8671 49.1852 15.4713 49.1852H30.1997M64.566 39.3663V19.7284C64.566 15.8222 63.0143 12.076 60.2521 9.31385C57.49 6.55174 53.7438 5 49.8376 5L30.1997 49.1852V103.189H85.5785C87.9465 103.216 90.2444 102.386 92.0488 100.853C93.8531 99.3188 95.0424 97.1847 95.3975 94.8433L102.173 50.6581C102.386 49.2508 102.291 47.8139 101.894 46.447C101.498 45.08 100.808 43.8157 99.8742 42.7416C98.9402 41.6675 97.7839 40.8093 96.4853 40.2265C95.1867 39.6437 93.7769 39.3502 92.3536 39.3663H64.566Z" stroke="#0090A5" stroke-width="9.81894" stroke-linecap="round" stroke-linejoin="round"/>
</svg>
