<svg width="101" height="52" viewBox="0 0 101 52" fill="none" xmlns="http://www.w3.org/2000/svg">
<path d="M11.1375 30.5155L10.8524 30.9457L4.79263 40.0949L0 39.7417V31.8966L11.1375 30.5155Z" fill="white"/>
<path d="M11.1375 0V30.5156L0 31.8967V0H11.1375Z" fill="white"/>
<path d="M30.9528 27.862L22.0102 41.3629L8.86328 40.3961L15.4367 30.4657L15.5431 30.3027C20.915 29.5488 26.0538 28.7269 30.9528 27.8597V27.862Z" fill="white"/>
<path d="M42.2011 10.8835L30.9527 27.8621C26.0537 28.7292 20.9171 29.5488 15.543 30.305L28.4002 10.8858H42.2011V10.8835Z" fill="white"/>
<path d="M64.6274 19.6976L64.0165 20.6214L60.7467 25.5685L58.6264 28.7586L53.155 37.0158L49.2154 42.959L48.9552 43.353L35.8105 42.3794L44.2056 29.7027L47.5862 24.5858L48.1451 23.7526L64.6274 19.6976Z" fill="white"/>
<path d="M77.6761 0L76.0333 2.47693L72.2409 8.20511L64.6288 19.6977L48.1465 23.7527L49.6399 21.4977L51.7511 18.3075L63.8843 0H77.6761Z" fill="white"/>
<path d="M96.5677 46.8624L90.207 46.3938L82.7125 26.5444L78.8477 16.3129C80.7756 15.697 82.6062 15.088 84.344 14.4971L86.6498 20.5988L96.57 46.8647L96.5677 46.8624Z" fill="white"/>
<path d="M84.3418 14.4948C82.6039 15.088 80.7733 15.6971 78.8454 16.3106L78.0738 14.2775L75.7793 8.20741L79.5763 2.47924L79.7664 2.38867L84.2558 14.2752L84.3395 14.4926L84.3418 14.4948Z" fill="white"/>
<path d="M47.5915 24.5859L44.2064 29.6982L42.6699 25.6296C44.3444 25.2878 45.9827 24.9368 47.5915 24.5836V24.5859Z" fill="white"/>
<path d="M48.1435 23.7527L47.5914 24.5859C45.9825 24.9368 44.3465 25.29 42.6698 25.6319L40.0449 18.6743L43.8374 12.9462L44.032 12.8556L48.1435 23.7527Z" fill="white"/>
<path d="M70.4081 41.6753V43.3643L62.0402 44.313L59.3203 44.1115L60.9405 41.6753H70.4081Z" fill="white"/>
<path d="M70.4069 43.3644V44.9334L62.0391 44.313L70.4069 43.3644Z" fill="white"/>
<path d="M75.7908 29.4423L72.8242 31.0974V23.7323L73.3379 22.9557L75.7908 29.4423Z" fill="white"/>
<path d="M79.3366 38.8316L79.2257 38.9992H72.8242V31.0974L75.7908 29.4424L79.3366 38.8316Z" fill="white"/>
<path d="M70.4068 27.3911V32.4446L65.0938 35.3992L65.6029 34.6295L68.1395 30.8122L70.4068 27.3911Z" fill="white"/>
<path d="M70.4071 32.4446V38.9992H62.709L63.8155 37.3282L65.0895 35.3992H65.094L70.4071 32.4446Z" fill="white"/>
<path d="M80.6106 42.2006L72.8242 43.0904V41.6753H80.416L80.6106 42.2006Z" fill="white"/>
<path d="M81.9456 45.7825L72.8242 45.1123V43.0905L80.6105 42.2007L81.9456 45.7825Z" fill="white"/>
<path d="M0 41.6753L96.9025 49.2034L100.813 51.9973H0" fill="white"/>
</svg>
