<svg width="101" height="53" viewBox="0 0 101 53" fill="none" xmlns="http://www.w3.org/2000/svg">
<path d="M11.1375 30.7435L10.8524 31.1737L4.79263 40.3229L0 39.9697V32.1246L11.1375 30.7435Z" fill="#007393"/>
<path d="M11.1375 0.228027V30.7436L0 32.1247V0.228027H11.1375Z" fill="#0090A5"/>
<path d="M30.9528 28.09L22.0102 41.5909L8.86328 40.6241L15.4367 30.6937L15.5431 30.5307C20.915 29.7768 26.0538 28.9549 30.9528 28.0878V28.09Z" fill="#007393"/>
<path d="M42.2011 11.1116L30.9527 28.0901C26.0537 28.9572 20.9171 29.7768 15.543 30.533L28.4002 11.1138H42.2011V11.1116Z" fill="#0090A5"/>
<path d="M64.6274 19.9257L64.0165 20.8494L60.7467 25.7965L58.6264 28.9866L53.155 37.2438L49.2154 43.187L48.9552 43.581L35.8105 42.6074L44.2056 29.9307L47.5862 24.8139L48.1451 23.9807L64.6274 19.9257Z" fill="#6CC5F0"/>
<path d="M77.6761 0.228027L76.0333 2.70496L72.2409 8.43314L64.6288 19.9257L48.1465 23.9807L49.6399 21.7257L51.7511 18.5356L63.8843 0.228027H77.6761Z" fill="#ACE1FF"/>
<path d="M96.5677 47.0905L90.207 46.6218L82.7125 26.7724L78.8477 16.5409C80.7756 15.9251 82.6062 15.316 84.344 14.7251L86.6498 20.8269L96.57 47.0927L96.5677 47.0905Z" fill="#6CC5F0"/>
<path d="M84.3418 14.7229C82.6039 15.316 80.7733 15.9251 78.8454 16.5387L78.0738 14.5055L75.7793 8.43544L79.5763 2.70727L79.7664 2.6167L84.2558 14.5032L84.3395 14.7206L84.3418 14.7229Z" fill="#ACE1FF"/>
<path d="M47.5915 24.8139L44.2064 29.9263L42.6699 25.8577C44.3444 25.5158 45.9827 25.1648 47.5915 24.8116V24.8139Z" fill="#007393"/>
<path d="M48.1435 23.9807L47.5914 24.8139C45.9825 25.1649 44.3465 25.5181 42.6698 25.86L40.0449 18.9024L43.8374 13.1742L44.032 13.0836L48.1435 23.9807Z" fill="#007393"/>
<path d="M70.4081 41.9033V43.5923L62.0402 44.541L59.3203 44.3395L60.9405 41.9033H70.4081Z" fill="#6CC5F0"/>
<path d="M70.4069 43.5924V45.1614L62.0391 44.5411L70.4069 43.5924Z" fill="#0090A5"/>
<path d="M75.7908 29.6704L72.8242 31.3254V23.9603L73.3379 23.1837L75.7908 29.6704Z" fill="#6CC5F0"/>
<path d="M79.3366 39.0596L79.2257 39.2272H72.8242V31.3255L75.7908 29.6704L79.3366 39.0596Z" fill="#0090A5"/>
<path d="M70.4068 27.6191V32.6726L65.0938 35.6273L65.6029 34.8575L68.1395 31.0402L70.4068 27.6191Z" fill="#6CC5F0"/>
<path d="M70.4071 32.6726V39.2272H62.709L63.8155 37.5563L65.0895 35.6273H65.094L70.4071 32.6726Z" fill="#0090A5"/>
<path d="M80.6106 42.4286L72.8242 43.3184V41.9033H80.416L80.6106 42.4286Z" fill="#6CC5F0"/>
<path d="M81.9456 46.0105L72.8242 45.3403V43.3185L80.6105 42.4287L81.9456 46.0105Z" fill="#0090A5"/>
<path d="M0 41.9033L96.9025 49.4315L100.813 52.2254H0" fill="#0090A5"/>
</svg>
