<svg width="16" height="16" viewBox="0 0 16 16" fill="none" xmlns="http://www.w3.org/2000/svg">
<path fill-rule="evenodd" clip-rule="evenodd" d="M7.23569 6.57756C6.87242 6.57756 6.57793 6.87204 6.57793 7.23532V13.1552C6.57793 13.5184 6.87242 13.8129 7.23569 13.8129H13.1555C13.5188 13.8129 13.8133 13.5184 13.8133 13.1552V7.23532C13.8133 6.87204 13.5188 6.57756 13.1555 6.57756H7.23569ZM5.26241 7.23532C5.26241 6.1455 6.14588 5.26203 7.23569 5.26203H13.1555C14.2454 5.26203 15.1288 6.1455 15.1288 7.23532V13.1552C15.1288 14.245 14.2454 15.1284 13.1555 15.1284H7.23569C6.14588 15.1284 5.26241 14.245 5.26241 13.1552V7.23532Z" fill="white"/>
<path fill-rule="evenodd" clip-rule="evenodd" d="M2.63149 1.97324C2.45704 1.97324 2.28973 2.04254 2.16638 2.16589C2.04302 2.28924 1.97372 2.45655 1.97372 2.631V8.55085C1.97372 8.72529 2.04302 8.8926 2.16638 9.01595C2.28973 9.13931 2.45704 9.20861 2.63149 9.20861H3.28925C3.65252 9.20861 3.94701 9.5031 3.94701 9.86637C3.94701 10.2296 3.65252 10.5241 3.28925 10.5241H2.63149C2.10814 10.5241 1.60623 10.3162 1.23616 9.94617C0.866102 9.5761 0.658203 9.07419 0.658203 8.55085V2.631C0.658203 2.10765 0.866102 1.60574 1.23616 1.23568C1.60623 0.865614 2.10814 0.657715 2.63149 0.657715H8.55133C9.07468 0.657715 9.57659 0.865614 9.94665 1.23568C10.3167 1.60574 10.5246 2.10765 10.5246 2.631V3.28876C10.5246 3.65203 10.2301 3.94652 9.86685 3.94652C9.50358 3.94652 9.20909 3.65203 9.20909 3.28876V2.631C9.20909 2.45655 9.13979 2.28924 9.01644 2.16589C8.89309 2.04254 8.72578 1.97324 8.55133 1.97324H2.63149Z" fill="white"/>
</svg>
