<svg width="15" height="16" viewBox="0 0 15 16" fill="none" xmlns="http://www.w3.org/2000/svg">
<path fill-rule="evenodd" clip-rule="evenodd" d="M6.82941 0.832476C7.07773 0.639337 7.42545 0.639337 7.67377 0.832476L13.8627 5.64609C14.0302 5.77637 14.1282 5.97669 14.1282 6.18889V13.7531C14.1282 14.3003 13.9108 14.825 13.5239 15.2119C13.1371 15.5988 12.6123 15.8161 12.0652 15.8161H9.31784C9.31675 15.8161 9.31566 15.8161 9.31457 15.8161C9.31348 15.8161 9.31238 15.8161 9.31129 15.8161H5.19189C5.1908 15.8161 5.1897 15.8161 5.18861 15.8161C5.18752 15.8161 5.18643 15.8161 5.18534 15.8161H2.43798C1.89084 15.8161 1.36612 15.5988 0.979232 15.2119C0.592349 14.825 0.375 14.3003 0.375 13.7531V6.18889C0.375 5.97669 0.472973 5.77637 0.640477 5.64609L6.82941 0.832476ZM5.87627 14.4408H8.62691V8.93954H5.87627V14.4408ZM10.0022 14.4408V8.25188C10.0022 7.8721 9.69435 7.56422 9.31457 7.56422H5.18861C4.80883 7.56422 4.50095 7.8721 4.50095 8.25188V14.4408H2.43798C2.2556 14.4408 2.08069 14.3684 1.95173 14.2394C1.82277 14.1104 1.75032 13.9355 1.75032 13.7531V6.52522L7.25159 2.24645L12.7529 6.52522V13.7531C12.7529 13.9355 12.6804 14.1104 12.5515 14.2394C12.4225 14.3684 12.2476 14.4408 12.0652 14.4408H10.0022Z" fill="white"/>
</svg>
