<svg width="11" height="14" viewBox="0 0 11 14" fill="none" xmlns="http://www.w3.org/2000/svg">
<path fill-rule="evenodd" clip-rule="evenodd" d="M5.49761 1.52033C4.45429 1.52033 3.44629 1.96235 2.69753 2.76147C1.94771 3.56173 1.52106 4.65395 1.52106 5.79935C1.52106 7.46906 2.537 9.07925 3.6383 10.3199C4.1802 10.9304 4.72361 11.43 5.13191 11.777C5.27207 11.8961 5.39585 11.9968 5.49761 12.0775C5.59936 11.9968 5.72314 11.8961 5.8633 11.777C6.2716 11.43 6.81502 10.9304 7.35691 10.3199C8.45821 9.07925 9.47415 7.46906 9.47415 5.79935C9.47415 4.65395 9.0475 3.56173 8.29768 2.76147C7.54893 1.96235 6.54092 1.52033 5.49761 1.52033ZM5.49761 12.7317C5.19597 13.1556 5.19584 13.1555 5.19569 13.1554L5.19423 13.1544L5.19087 13.152L5.17934 13.1437L5.13783 13.1133C5.10224 13.0869 5.05114 13.0486 4.98675 12.999C4.85801 12.8998 4.67584 12.755 4.45804 12.5699C4.02318 12.2003 3.44238 11.6667 2.86007 11.0107C1.71295 9.71842 0.480469 7.86244 0.480469 5.79935C0.480469 4.39903 1.00137 3.0498 1.93818 2.04997C2.87608 1.049 4.15565 0.479736 5.49761 0.479736C6.83957 0.479736 8.11914 1.049 9.05703 2.04997C9.99384 3.0498 10.5147 4.39903 10.5147 5.79935C10.5147 7.86244 9.28226 9.71842 8.13514 11.0107C7.55283 11.6667 6.97203 12.2003 6.53717 12.5699C6.31937 12.755 6.1372 12.8998 6.00847 12.999C5.94407 13.0486 5.89297 13.0869 5.85738 13.1133L5.81587 13.1437L5.80435 13.152L5.80098 13.1544L5.7999 13.1552C5.79976 13.1553 5.79924 13.1556 5.49761 12.7317ZM5.49761 12.7317L5.7999 13.1552C5.61934 13.2836 5.37626 13.2839 5.19569 13.1554L5.49761 12.7317ZM5.49761 4.71987C4.9885 4.71987 4.51895 5.17075 4.51895 5.79935C4.51895 6.42795 4.9885 6.87882 5.49761 6.87882C6.00671 6.87882 6.47626 6.42795 6.47626 5.79935C6.47626 5.17075 6.00671 4.71987 5.49761 4.71987ZM3.47836 5.79935C3.47836 4.66089 4.35102 3.67928 5.49761 3.67928C6.64419 3.67928 7.51685 4.66089 7.51685 5.79935C7.51685 6.93781 6.64419 7.91942 5.49761 7.91942C4.35102 7.91942 3.47836 6.93781 3.47836 5.79935Z" fill="#FBFBFB"/>
</svg>
