<svg width="18" height="15" viewBox="0 0 18 15" fill="none" xmlns="http://www.w3.org/2000/svg">
<path fill-rule="evenodd" clip-rule="evenodd" d="M5.88545 0.770614C6.01321 0.578976 6.22829 0.463867 6.45861 0.463867H10.764C10.9943 0.463867 11.2094 0.578976 11.3371 0.770614L12.5677 2.61654H15.0693C15.6326 2.61654 16.1728 2.84031 16.5712 3.23864C16.9695 3.63696 17.1933 4.1772 17.1933 4.74051V12.6336C17.1933 13.197 16.9695 13.7372 16.5712 14.1355C16.1728 14.5338 15.6326 14.7576 15.0693 14.7576H2.15327C1.58995 14.7576 1.04971 14.5338 0.651393 14.1355C0.253072 13.7372 0.0292969 13.1969 0.0292969 12.6336V4.74051C0.0292969 4.1772 0.253072 3.63696 0.651393 3.23864C1.04971 2.84031 1.58995 2.61654 2.15327 2.61654H4.65483L5.88545 0.770614ZM6.82727 1.84158L5.59666 3.6875C5.4689 3.87914 5.25382 3.99425 5.0235 3.99425H2.15327C1.95535 3.99425 1.76553 4.07287 1.62558 4.21282C1.48563 4.35277 1.40701 4.54259 1.40701 4.74051V12.6336C1.40701 12.8316 1.48563 13.0214 1.62558 13.1613C1.76553 13.3013 1.95535 13.3799 2.15327 13.3799H15.0693C15.2672 13.3799 15.457 13.3013 15.597 13.1613C15.7369 13.0214 15.8156 12.8316 15.8156 12.6336V4.74051C15.8156 4.54259 15.7369 4.35277 15.597 4.21282C15.457 4.07287 15.2672 3.99425 15.0693 3.99425H12.1991C11.9687 3.99425 11.7537 3.87914 11.6259 3.6875L10.3953 1.84158H6.82727ZM8.61128 6.14692C7.40654 6.14692 6.42991 7.12355 6.42991 8.32829C6.42991 9.53303 7.40654 10.5097 8.61128 10.5097C9.81602 10.5097 10.7927 9.53303 10.7927 8.32829C10.7927 7.12355 9.81602 6.14692 8.61128 6.14692ZM5.0522 8.32829C5.0522 6.36267 6.64565 4.76921 8.61128 4.76921C10.5769 4.76921 12.1704 6.36267 12.1704 8.32829C12.1704 10.2939 10.5769 11.8874 8.61128 11.8874C6.64565 11.8874 5.0522 10.2939 5.0522 8.32829Z" fill="white"/>
</svg>
