<svg width="13" height="16" viewBox="0 0 13 16" fill="none" xmlns="http://www.w3.org/2000/svg">
<path fill-rule="evenodd" clip-rule="evenodd" d="M4.18977 0C3.43021 0 2.81445 0.615751 2.81445 1.37532L2.12548 1.37549C1.57834 1.37549 1.05362 1.59284 0.666733 1.97972C0.27985 2.3666 0.0625 2.89133 0.0625 3.43847V13.0657C0.0625 13.6128 0.27985 14.1376 0.666733 14.5244C1.05362 14.9113 1.57834 15.1287 2.12548 15.1287H10.3774C10.9245 15.1287 11.4492 14.9113 11.8361 14.5244C12.223 14.1376 12.4404 13.6128 12.4404 13.0657V3.43847C12.4404 2.89133 12.223 2.3666 11.8361 1.97972C11.4492 1.59284 10.9245 1.37549 10.3774 1.37549H9.69104C9.69104 0.615921 9.07529 0 8.31573 0H4.18977ZM8.31573 2.02024C8.31485 2.03443 8.31441 2.04874 8.31441 2.06315C8.31441 2.07756 8.31485 2.09187 8.31573 2.10606V2.75064H4.18977V1.37532H8.31573V2.02024ZM9.69104 2.75081H10.3774C10.5598 2.75081 10.7347 2.82326 10.8636 2.95222C10.9926 3.08118 11.065 3.25609 11.065 3.43847V13.0657C11.065 13.2481 10.9926 13.423 10.8636 13.5519C10.7347 13.6809 10.5598 13.7534 10.3774 13.7534H2.12548C1.9431 13.7534 1.76819 13.6809 1.63923 13.5519C1.51027 13.423 1.43782 13.2481 1.43782 13.0657V3.43847C1.43782 3.25609 1.51027 3.08118 1.63923 2.95222C1.76819 2.82326 1.9431 2.75081 2.12548 2.75081H2.81445C2.81455 3.5103 3.43026 4.12595 4.18977 4.12595H8.31573C9.07524 4.12595 9.69095 3.5103 9.69104 2.75081Z" fill="current"/>
</svg>
