<svg width="33" height="32" viewBox="0 0 33 32" fill="none" xmlns="http://www.w3.org/2000/svg">
<path d="M24.75 7.75H24.765M9 1H24C28.1421 1 31.5 4.35786 31.5 8.5V23.5C31.5 27.6421 28.1421 31 24 31H9C4.85786 31 1.5 27.6421 1.5 23.5V8.5C1.5 4.35786 4.85786 1 9 1ZM22.4996 15.0551C22.6847 16.3035 22.4714 17.5784 21.8902 18.6986C21.3089 19.8188 20.3893 20.7272 19.262 21.2946C18.1347 21.862 16.8572 22.0595 15.6112 21.859C14.3652 21.6585 13.2142 21.0702 12.3218 20.1778C11.4294 19.2854 10.8412 18.1344 10.6407 16.8884C10.4402 15.6424 10.6377 14.3649 11.2051 13.2376C11.7724 12.1104 12.6808 11.1907 13.801 10.6094C14.9212 10.0282 16.1962 9.81497 17.4446 10.0001C18.7179 10.1889 19.8968 10.7823 20.8071 11.6925C21.7174 12.6028 22.3107 13.7817 22.4996 15.0551Z" stroke="#FBFBFB" stroke-width="2" stroke-linecap="round" stroke-linejoin="round"/>
</svg>
